<?xml version="1.0"?><svg width="2707.5" height="2707.5369" xmlns="http://www.w3.org/2000/svg" xmlns:xlink="http://www.w3.org/1999/xlink">
 <title>Ray Gun green and black</title>
 <metadata id="metadata2991">image/svg+xmlRay Gun04/2011mawoki@ymail.comPublic Domain</metadata>
 <defs>
  <linearGradient id="linearGradient3953">
   <stop stop-color="#000000" id="stop3955" offset="0"/>
   <stop stop-color="#000000" stop-opacity="0" id="stop3957" offset="1"/>
  </linearGradient>
  <linearGradient id="linearGradient3894">
   <stop stop-color="#fffff0" id="stop3896" offset="0"/>
   <stop stop-color="#fffff0" stop-opacity="0" id="stop3898" offset="1"/>
  </linearGradient>
  <linearGradient id="linearGradient3856">
   <stop stop-color="#eaeaea" id="stop3858" offset="0"/>
   <stop stop-color="#ffffff" offset="0.5" id="stop3864"/>
   <stop stop-color="#eaeaea" id="stop3860" offset="1"/>
  </linearGradient>
  <linearGradient id="linearGradient3846">
   <stop stop-color="#919fff" id="stop3848" offset="0"/>
   <stop stop-color="#b9c5ff" offset="0.376763" id="stop3854"/>
   <stop stop-color="#e1eaff" id="stop3850" offset="1"/>
  </linearGradient>
  <linearGradient id="linearGradient3808">
   <stop stop-color="#ffffff" offset="0" id="stop3818"/>
   <stop stop-color="#ffff7a" id="stop3812" offset="1"/>
  </linearGradient>
  <linearGradient id="linearGradient3925">
   <stop stop-color="#ffffff" id="stop3927" offset="0"/>
   <stop stop-color="#ffffff" stop-opacity="0.498039" offset="0.5" id="stop3933"/>
   <stop stop-color="#ffffff" stop-opacity="0" id="stop3929" offset="1"/>
  </linearGradient>
  <radialGradient gradientTransform="matrix(0.20166126,0.93948975,-1.1061865,0.22761062,3501.3566,-1276.4306)" gradientUnits="userSpaceOnUse" r="240.0865" fy="1481.4508" fx="2625.9907" cy="1481.4508" cx="2625.9907" id="radialGradient3814" xlink:href="#linearGradient3808"/>
  <radialGradient gradientTransform="matrix(0.67989439,0.5249561,-0.61021713,0.77347473,1645.2218,-928.95898)" gradientUnits="userSpaceOnUse" r="235.95197" fy="1508.7826" fx="2534.9365" cy="1508.7826" cx="2534.9365" id="radialGradient3826" xlink:href="#linearGradient3808"/>
  <linearGradient y2="0.631274" x2="0.93317" y1="0.472154" x1="0.500866" id="linearGradient3834" xlink:href="#linearGradient3808"/>
  <linearGradient y2="0.793396" x2="0.943903" y1="0.651756" x1="0.655331" id="linearGradient3842" xlink:href="#linearGradient3808"/>
  <linearGradient y2="0.001104" x2="0.4431" y1="0.999622" x1="0.4431" id="linearGradient3852" xlink:href="#linearGradient3846"/>
  <linearGradient y2="-Infinity" x2="0.542221" y1="Infinity" x1="0.452182" id="linearGradient3862" xlink:href="#linearGradient3856"/>
  <linearGradient y2="Infinity" x2="0.420996" y1="-Infinity" x1="0.575525" id="linearGradient3880" xlink:href="#linearGradient3856"/>
  <linearGradient y2="Infinity" x2="0.508899" y1="-Infinity" x1="0.453961" id="linearGradient3888" xlink:href="#linearGradient3856"/>
  <radialGradient gradientUnits="userSpaceOnUse" gradientTransform="matrix(-0.35940189,-0.8641481,0.76067227,-0.31636595,591.06228,1783.9757)" r="704.89709" fy="561.31494" fx="736.02386" cy="561.31494" cx="736.02386" id="radialGradient3900" xlink:href="#linearGradient3894"/>
  <linearGradient gradientUnits="userSpaceOnUse" y2="241.15343" x2="1241.8563" y1="2751.4229" x1="1241.8563" id="linearGradient3852-3" xlink:href="#linearGradient3846-1"/>
  <linearGradient id="linearGradient3846-1">
   <stop stop-color="#919fff" id="stop3848-4" offset="0"/>
   <stop stop-color="#b9c5ff" offset="0.376763" id="stop3854-7"/>
   <stop stop-color="#e1eaff" id="stop3850-0" offset="1"/>
  </linearGradient>
  <radialGradient r="704.89709" fy="561.31494" fx="736.02386" cy="561.31494" cx="736.02386" gradientTransform="matrix(-0.47347108,-0.64793652,0.50565909,-0.33382941,818.16264,1634.6413)" gradientUnits="userSpaceOnUse" id="radialGradient3949" xlink:href="#linearGradient3894"/>
  <radialGradient gradientUnits="userSpaceOnUse" gradientTransform="matrix(1.0395352,-0.05382037,0.01446473,0.2793849,-90.483222,1658.2958)" r="998.78833" fy="2232.9089" fx="1454.8444" cy="2232.9089" cx="1454.8444" id="radialGradient3959" xlink:href="#linearGradient3953"/>
  <radialGradient spreadMethod="pad" id="svg_2">
   <stop offset="0" stop-color="#000000"/>
   <stop offset="1" stop-color="#ffffff"/>
  </radialGradient>
  <radialGradient r="0.5" cy="0.5" cx="0.5" spreadMethod="pad" id="svg_3">
   <stop offset="0" stop-color="#000000"/>
   <stop offset="0.414063" stop-color="#ffffff"/>
   <stop offset="0.914063" stop-color="#ffffff"/>
  </radialGradient>
 </defs>
 <g>
  <title>Layer 1</title>
  <path fill="#7fff00" stroke="#000000" stroke-width="35" stroke-linecap="round" stroke-linejoin="round" stroke-miterlimit="4" id="path3966" d="m1847.927734,1722.444824c0,0 -45.135376,54.843018 -51.939209,90.562744c-11.906616,86.748291 44.059204,344.450439 17.009399,474.563477c-9.166504,44.092285 -21.673706,104.233643 -81.645264,137.776367c-55.426392,31.000977 -116.588257,25.113037 -175.763184,23.813477c-55.03064,-1.208984 -99.462646,-14.415283 -160.404785,-32.111816c-81.645264,-62.934814 -107.83667,-70.898926 -145.199341,-129.478027c-11.412354,-17.892822 -5.172974,-48.602295 17.731812,-59.842529c40.322998,-19.787842 66.455566,-28.655029 80.734375,-63.365479c16.212402,-39.4104 -27.397095,-72.842773 -9.312378,-105.526123c14.009277,-25.318359 46.892334,-24.602173 66.525513,-68.432861c18.787109,-41.942505 -30.313843,-64.5 -19.087891,-109.358643c7.010376,-28.013306 36.800049,-37.664185 46.904297,-61.7323c28.851929,-68.725342 22.318604,-224.026245 22.318604,-224.026245l392.128052,127.157959z"/>
  <path fill="#7fff00" stroke="#000000" stroke-width="35" stroke-linecap="round" stroke-linejoin="round" stroke-miterlimit="4" id="path3968" d="m1358.96875,1514.712646c0,0 0.468506,70.878418 -44.501709,165.97937c-28.571533,60.421875 -45.704468,63.466431 -67.354004,93.535156c5.966675,15.34729 4.985596,13.998047 16.466553,27.081299c13.078613,14.904053 13.739624,12.428955 24.852173,20.032227c44.501709,-15.63562 79.172241,-17.605103 140.296387,-78.105591c56.869751,-56.289551 80.584351,-174.398804 80.584351,-174.398804l-150.34375,-54.123657z"/>
  <path fill="#000000" stroke="#000000" stroke-width="11.790742" stroke-linecap="round" stroke-linejoin="round" stroke-miterlimit="4" stroke-dashoffset="0" d="m1338.5979,1737.306885c34.928589,-31.315186 33.641846,-33.466797 47.452759,-52.629761c13.2229,-19.620117 20.276001,-33.720703 24.755737,-57.80835c2.10376,-11.312256 7.368164,-21.634033 -0.025024,-37.426147l-5.217041,-12.134399l39.455566,20.057861c0,0 -12.782349,44.471313 -15.891968,54.787842c-2.636108,8.745972 -11.753906,27.721313 -15.160034,33.083496c-18.905884,29.764893 -37.749756,52.80896 -67.1604,72.166382c-31.166626,20.512939 -56.770508,28.849121 -60.243896,25.217529c17.61084,-17.973999 37.53186,-32.312378 52.03418,-45.314453l0.000122,0z" id="path4154"/>
  <path fill="#7fff00" stroke="#000000" stroke-width="33.060314" stroke-linecap="round" stroke-linejoin="round" stroke-miterlimit="4" d="m2633.15918,1410.140137a198.040878,200.185776 0 1 1 -396.081543,0a198.040878,200.185776 0 1 1 396.081543,0z" id="path3778"/>
  <path fill="#000000" stroke="#000000" stroke-width="30" stroke-miterlimit="4" id="path2995" d="m2353.898193,1267.709106c-5.081299,164.175537 -88.657227,317.903809 -188.515625,383.674194c-62.127197,40.919189 -215.448242,103.767212 -366.817627,63.553223c-349.38623,-92.820923 -559.318726,-179.170532 -798.618286,-449.632935c-137.860779,-155.813843 -93.573425,-407.127014 167.896362,-513.512573c111.608887,-45.410889 375.364502,-30.983948 485.024414,-28.796814c450.410156,8.983398 709.753174,262.90332 701.030762,544.714905z"/>
  <path fill="#7fff00" stroke="#000000" stroke-width="19" stroke-linecap="round" stroke-linejoin="round" stroke-miterlimit="4" d="m1527.651855,1049.861206a347.958832,563.826477 0 1 1 -695.91748,-196.064575a347.958832,563.826477 0 1 1 695.91748,196.064575z" id="path3778-2-0"/>
  <path fill="#7fff00" stroke="#000000" stroke-width="5" stroke-linecap="round" stroke-linejoin="round" stroke-miterlimit="4" id="path3776" d="m1561.03064,1099.76416c-8.359985,22.587646 146.735352,86.598022 271.821289,170.790405c134.707886,79.381348 185.223389,151.546265 209.27832,156.3573c21.649292,-15.635864 -67.353882,-144.329834 -56.529053,-158.762817c24.05481,-3.608154 186.425903,98.625366 208.075562,96.219971c-2.405518,-33.677002 -139.519043,-125.085938 -139.519043,-125.085938c0,0 -187.628784,-98.625488 -203.264526,-96.219971c-7.216431,12.027466 58.934692,80.584229 56.529175,101.031006c-16.838501,0 -186.426147,-120.274902 -346.391724,-144.329956z"/>
  <path fill="#000000" stroke="#000000" stroke-width="30" stroke-linecap="round" stroke-linejoin="round" stroke-miterlimit="4" id="rect3893" d="m1061.180542,656.365601c125.869873,-20.411316 275.347534,-30.269409 321.478516,5.102844c31.129272,23.869263 18.5,261.638367 -51.216431,410.606995c-72.626099,155.185791 -150.332642,259.116943 -195.420532,276.574341c-49.782349,19.275024 -98.654785,-73.140503 -183.702026,-188.80481l108.860474,-503.47937z"/>
  <path fill="#7fff00" stroke="#000000" stroke-width="19" stroke-linecap="round" stroke-linejoin="round" stroke-miterlimit="4" d="m1161.063232,945.994812a244.706161,402.267303 0 1 1 -489.41217,-139.884033a244.706161,402.267303 0 1 1 489.41217,139.884033z" id="path3778-2-0-5"/>
  <path fill="#000000" stroke="#000000" stroke-width="30" stroke-linecap="round" stroke-linejoin="round" stroke-miterlimit="4" id="rect3893-2" d="m763.619385,678.477905c112.262329,-40.822632 162.280701,-49.487427 212.617981,-20.411316c44.381653,25.635925 93.633484,137.846741 30.720764,269.805847c-73.736084,154.661499 -137.398743,178.523193 -175.300903,155.429932c-47.233337,-28.778564 -100.355774,-88.448975 -147.9823,-190.505676c43.170532,-159.221863 35.254761,-137.365479 79.944458,-214.318787z"/>
  <path fill="#7fff00" stroke="#000000" stroke-width="19" stroke-linecap="round" stroke-linejoin="round" stroke-miterlimit="4" d="m782.372498,829.565369a160.688965,272.198608 0 1 1 -321.377838,-94.654114a160.688965,272.198608 0 1 1 321.377838,94.654114z" id="path3778-2-0-5-6"/>
  <path fill="#000000" stroke="#000000" stroke-width="26" stroke-linecap="round" stroke-linejoin="round" stroke-miterlimit="4" id="rect3922" d="m222.370804,730.520203l29.863266,-72.499023c44.501709,-1.202759 180.309601,43.253784 254.532074,54.131226c65.624908,9.617432 55.988434,-1.466309 88.456879,-2.078918c31.289063,-0.590393 70.02594,17.219727 72.164978,68.556702c2.857544,68.581543 -72.667664,158.854675 -105.34375,134.707886c-32.676086,-24.14679 -82.662445,-53.907104 -131.257568,-78.572815c-110.420807,-56.046936 -156.697662,-80.190063 -208.415878,-104.245056z"/>
  <path fill="#7fff00" stroke="#000000" stroke-width="19" stroke-linecap="round" stroke-linejoin="round" stroke-miterlimit="4" d="m376.503998,685.914978a157.598007,160.966003 0 1 1 -315.195599,0a157.598007,160.966003 0 1 1 315.195599,0z" id="path3778-2"/>
  <path fill="#000000" stroke="#000000" stroke-width="15" stroke-linecap="round" stroke-linejoin="round" stroke-miterlimit="4" id="path3914" d="m338.356293,719.446411c-46.043457,96.585876 -124.598206,86.602234 -124.598206,86.602234c0,0 49.549072,-13.497009 86.744537,-87.804993c21.021179,-93.80835 -11.097015,-134.933228 -11.097015,-134.933228c0,0 68.763123,56.191589 48.950684,136.135986z"/>
  <g stroke="#000000" id="g3958">
   <path fill="#7fff00" stroke="#000000" stroke-width="30" stroke-linecap="round" stroke-linejoin="round" stroke-miterlimit="4" d="m2080.159912,708.718994l52.410156,20.121033c0,0 -30.530029,46.639954 -42.430176,158.901978c-30.619873,13.607971 -64.319946,1.992004 -84.729858,-38.830017c73.140015,-73.140991 74.749878,-140.192993 74.749878,-140.192993z" id="rect3935-7"/>
   <path fill="#7fff00" stroke="#000000" stroke-width="30" stroke-linecap="round" stroke-linejoin="round" stroke-miterlimit="4" d="m1775.689941,589.817017l52.410034,16.717957c0,0 -54.339966,67.052002 -52.640015,174.210999c-30.609985,13.608032 -64.319946,1.992004 -84.72998,-38.829956c73.140015,-73.140991 84.959961,-152.098999 84.959961,-152.098999z" id="rect3935"/>
   <g fill="#ffffff" stroke="#000000" id="g3917">
    <path fill="#7fff00" stroke="#000000" stroke-width="77.462593" stroke-linecap="round" stroke-linejoin="round" stroke-miterlimit="4" d="m2311.600098,745.518982c0,46.866028 -38.100098,84.858032 -85.100098,84.858032c-47,0 -85.100098,-37.992004 -85.100098,-84.858032c0,-46.865967 38.100098,-84.859009 85.100098,-84.859009c47,0 85.100098,37.993042 85.100098,84.859009z" id="path3778-2-3-0"/>
    <path fill="#7fff00" stroke="#000000" stroke-width="30" stroke-linecap="round" stroke-linejoin="round" stroke-miterlimit="4" id="rect3890" d="m1773.910034,567.281982c151.469971,61.354004 221.97998,91.11499 340.640015,124.153015c64.25,17.888977 99.780029,13.114014 113.369873,36.452026c10.719971,18.419006 -8.47998,33.796997 -33.859863,39.273987c-20.570068,4.440002 -49.689941,-15.195984 -85.77002,-28.557007c-97.420044,-36.083008 -229.710083,-85.434021 -355.080078,-120.544983c-33.130005,-9.280029 -39.799927,-4.549011 -48.409912,-18.411011c-8.280029,-13.320984 1.380005,-44.085022 12.209961,-46.491028c33.920044,-7.536987 24.689941,1.080994 56.900024,14.125z"/>
    <path fill="#7fff00" stroke="#000000" stroke-width="77.462593" stroke-linecap="round" stroke-linejoin="round" stroke-miterlimit="4" d="m1747.51001,567.512024c0,46.865967 -38.099976,84.857971 -85.099976,84.857971c-47,0 -85.099976,-37.992004 -85.099976,-84.857971c0,-46.866028 38.099976,-84.859009 85.099976,-84.859009c47,0 85.099976,37.992981 85.099976,84.859009z" id="path3778-2-3"/>
   </g>
  </g>
  <path fill="#000000" stroke="#000000" stroke-width="15" stroke-linecap="round" stroke-linejoin="round" stroke-miterlimit="4" id="path3784" d="m1372.199097,2392.719482c0,0 -0.141846,-33.056396 10.447388,-53.730225c9.093384,-17.753662 35.84314,-29.80249 41.270752,-40.084229c17.442139,-33.041504 30.443115,-47.706055 38.487915,-84.192383c7.764404,-35.214355 -25.365112,-74.412598 -16.838379,-109.450195c9.918091,-40.755615 61.044678,-44.488037 74.570435,-84.192505c20.48584,-60.135742 -27.419312,-70.877075 -8.419189,-132.302368c19.976318,-64.581787 36.172119,-55.446045 57.731812,-84.192383c10.824707,-14.432983 12.027588,-125.08606 12.027588,-125.08606c0,0 25.455444,80.475098 15.635742,116.666748c-12.371826,45.597778 -55.40332,59.240845 -64.948486,95.017212c-11.391235,42.696533 28.036377,90.258423 12.027466,145.532593c-10.696045,36.930542 -64.33313,39.915649 -74.570435,76.975952c-10.688843,38.69458 28.104126,54.227051 10.824707,111.855713c-13.6427,45.499756 -19.422974,62.008301 -48.109985,96.219971c-36.759521,43.838867 -27.66333,101.031006 -27.66333,101.031006l-32.473999,-30.068848z"/>
 </g>
</svg>